<svg id="Слой_1" data-name="Слой 1" xmlns="http://www.w3.org/2000/svg" viewBox="0 0 24 24"><defs><style>.cls-1{fill:#010101;}</style></defs><path class="cls-1" d="M8,7.24a.79.79,0,0,1,.8-.79h6.34a.79.79,0,1,1,0,1.58H8.83A.79.79,0,0,1,8,7.24Zm.8,4h4.76a.8.8,0,0,0,0-1.59H8.83a.8.8,0,1,0,0,1.59Zm12.69,1.35v5a4,4,0,0,1-4,4H6.45a4,4,0,0,1-4-4v-5A4,4,0,0,1,3.7,9.7L4.86,8.59V5.65A3.17,3.17,0,0,1,8,2.48H16a3.17,3.17,0,0,1,3.17,3.17V8.59L20.3,9.7a4,4,0,0,1,1.22,2.86ZM6.45,5.65v6.54l3.87,3.87a2.43,2.43,0,0,0,3.36,0l3.87-3.87V5.65A1.58,1.58,0,0,0,16,4.07H8A1.58,1.58,0,0,0,6.45,5.65Zm13.48,6.91a2.38,2.38,0,0,0,0-.46L14.8,17.18a3.94,3.94,0,0,1-5.6,0L4.11,12.1a2.38,2.38,0,0,0,0,.46v5a2.39,2.39,0,0,0,2.38,2.38h11.1a2.39,2.39,0,0,0,2.38-2.38v-5Z"/></svg>