<svg id="Слой_1" data-name="Слой 1" xmlns="http://www.w3.org/2000/svg" viewBox="0 0 24 24"><defs><style>.cls-1{fill:#010101;}</style></defs><path class="cls-1" d="M12,2.48A9.52,9.52,0,1,0,21.52,12,9.52,9.52,0,0,0,12,2.48ZM19.93,12a7.92,7.92,0,0,1-1.32,4.37l-.94-1a.36.36,0,0,1-.12-.28v-.76A2.38,2.38,0,0,0,15.17,12H12.79a.8.8,0,0,1-.79-.79v-.4a.4.4,0,0,1,.4-.4,2,2,0,0,0,2-2V7.64a.4.4,0,0,1,.4-.4h1.09a2,2,0,0,0,1.4-.58l.3-.3A7.92,7.92,0,0,1,19.93,12Zm-15.82.76,2.5,2.51a2.37,2.37,0,0,0,1.68.7h2.12a.79.79,0,0,1,.8.79v3.13A7.94,7.94,0,0,1,4.11,12.76Zm8.68,7.13V16.76a2.37,2.37,0,0,0-2.38-2.38H8.29a.79.79,0,0,1-.56-.23L4.2,10.61a7.91,7.91,0,0,1,9.16-6.42,7.8,7.8,0,0,1,3,1.17l-.18.18a.41.41,0,0,1-.28.11H14.78a2,2,0,0,0-2,2v.79a.39.39,0,0,1-.39.4,2,2,0,0,0-2,2v.4a2.39,2.39,0,0,0,2.38,2.38h2.38a.79.79,0,0,1,.8.79v.76a2,2,0,0,0,.58,1.4l1.06,1.06A7.89,7.89,0,0,1,12.79,19.89Z"/></svg>