<svg id="Слой_1" data-name="Слой 1" xmlns="http://www.w3.org/2000/svg" viewBox="0 0 24 24"><defs><style>.cls-1{fill:#010101;}</style></defs><path class="cls-1" d="M19.25,18.14a9.47,9.47,0,0,0,0-12.27l.69-.68a.8.8,0,0,0-1.13-1.13h0l-.68.69a9.47,9.47,0,0,0-12.27,0l-.68-.69A.8.8,0,0,0,4.06,5.19l.68.68a9.47,9.47,0,0,0,0,12.27l-.68.68A.79.79,0,1,0,5.16,20l0,0,.68-.68a9.47,9.47,0,0,0,12.27,0l.69.68a.78.78,0,0,0,1.12,0,.8.8,0,0,0,0-1.1ZM19.92,12a7.85,7.85,0,0,1-1.79,5L15.3,14.19a4,4,0,0,0,0-4.37L18.13,7A7.84,7.84,0,0,1,19.92,12ZM9.62,12A2.38,2.38,0,1,1,12,14.38,2.37,2.37,0,0,1,9.62,12ZM12,4.08a7.84,7.84,0,0,1,5,1.79L14.18,8.7a4,4,0,0,0-4.37,0L7,5.87A7.85,7.85,0,0,1,12,4.08ZM4.07,12A7.9,7.9,0,0,1,5.86,7L8.69,9.82a4,4,0,0,0,0,4.37L5.86,17A7.91,7.91,0,0,1,4.07,12ZM12,19.93a7.91,7.91,0,0,1-5-1.79l2.83-2.83a4,4,0,0,0,4.37,0L17,18.14A7.9,7.9,0,0,1,12,19.93Z"/></svg>