<svg id="Слой_1" data-name="Слой 1" xmlns="http://www.w3.org/2000/svg" viewBox="0 0 24 24"><defs><style>.cls-1{fill:#010101;}</style></defs><path class="cls-1" d="M20.59,9.76,17.52,6.68a.81.81,0,0,0-1.13,0,.8.8,0,0,0,0,1.1l3.08,3.08a1.83,1.83,0,0,1,.24.31h0l-12.45,0a.79.79,0,0,0,0,1.58h0l12.44,0h.06a1.83,1.83,0,0,1-.26.36L16.39,16.2a.8.8,0,0,0,0,1.12.78.78,0,0,0,1.12,0l0,0,3.08-3.08a3.16,3.16,0,0,0,0-4.48Z"/><path class="cls-1" d="M8,19.93H6.45a2.37,2.37,0,0,1-2.38-2.38V6.45A2.37,2.37,0,0,1,6.45,4.07H8A.8.8,0,1,0,8,2.48H6.45a4,4,0,0,0-4,4v11.1a4,4,0,0,0,4,4H8a.79.79,0,0,0,.8-.79A.8.8,0,0,0,8,19.93Z"/></svg>