<svg id="Слой_1" data-name="Слой 1" xmlns="http://www.w3.org/2000/svg" viewBox="0 0 24 24"><defs><style>.cls-1{fill:#010101;}</style></defs><path class="cls-1" d="M15.74,8.83H8.26V8a3.86,3.86,0,0,1,3.74-4,3.7,3.7,0,0,1,3.27,2.05.72.72,0,0,0,1,.3.81.81,0,0,0,.29-1.07A5.08,5.08,0,0,0,9.46,3.18,5.63,5.63,0,0,0,6.76,8V9.17a4,4,0,0,0-2.24,3.62v4.76a3.87,3.87,0,0,0,3.74,4h7.48a3.87,3.87,0,0,0,3.74-4V12.79A3.86,3.86,0,0,0,15.74,8.83ZM18,17.55a2.31,2.31,0,0,1-2.24,2.38H8.26A2.31,2.31,0,0,1,6,17.55V12.79a2.31,2.31,0,0,1,2.24-2.37h7.48A2.31,2.31,0,0,1,18,12.79Z"/><path class="cls-1" d="M12,13.59a.77.77,0,0,0-.75.79V16a.75.75,0,1,0,1.5,0V14.38A.77.77,0,0,0,12,13.59Z"/></svg>