<svg id="Слой_1" data-name="Слой 1" xmlns="http://www.w3.org/2000/svg" viewBox="0 0 24 24"><defs><style>.cls-1{fill:#010101;}</style></defs><path class="cls-1" d="M17.52,2.52H6.44a4,4,0,0,0-4,4V17.56a4,4,0,0,0,4,4H17.52a4,4,0,0,0,4-4V6.48A4,4,0,0,0,17.52,2.52Zm.79,8.71H19.9v1.58H18.31Zm0-1.59V8.06H19.9V9.64ZM5.65,12.81H4.07V11.23H5.65Zm1.54,0V11.23h9.5v1.58ZM5.65,9.64H4.07V8.06H5.65ZM4.07,14.39H5.65V16H4.07Zm14.24,0H19.9V16H18.31ZM19.9,6.48H18.31V4.25A2.37,2.37,0,0,1,19.9,6.48ZM5.65,4.25V6.48H4.07A2.35,2.35,0,0,1,5.65,4.25ZM4.07,17.56H5.65v2.23A2.36,2.36,0,0,1,4.07,17.56Zm14.24,2.23V17.56H19.9A2.38,2.38,0,0,1,18.31,19.79Z"/></svg>