<svg id="Слой_1" data-name="Слой 1" xmlns="http://www.w3.org/2000/svg" viewBox="0 0 24 24"><defs><style>.cls-1{fill:#010101;}</style></defs><path class="cls-1" d="M19,14.64l-3,4.88a4.14,4.14,0,0,1-3.07,2,4.07,4.07,0,0,1-.5,0,4.16,4.16,0,0,1-2.38-.76,3.76,3.76,0,0,1-5.3-5.21l-1-1a4.15,4.15,0,0,1,0-5.9A4,4,0,0,1,4.49,8L9.07,5.18a7,7,0,0,1,8.19.44L18.57,4.3a.8.8,0,0,1,1.15,1.1l0,0L18.38,6.74a7.09,7.09,0,0,1,.64,7.9Zm-10.14,5-3-2.95a2.15,2.15,0,0,0,.36,2.59A2.24,2.24,0,0,0,8.88,19.65ZM16.74,7.28a5.45,5.45,0,0,0-6.83-.75L5.33,9.36a2.57,2.57,0,0,0-.84,3.56,2.4,2.4,0,0,0,.37.47l5.78,5.78a2.58,2.58,0,0,0,3.66,0,2.45,2.45,0,0,0,.38-.47l3-4.86a5.51,5.51,0,0,0-.92-6.57Zm1,14.24a.8.8,0,0,1-.8-.79.79.79,0,0,1,.33-.65,6.81,6.81,0,0,0,2.63-4.28.8.8,0,0,1,.94-.62.79.79,0,0,1,.61.93v0a8.55,8.55,0,0,1-3.24,5.23A.87.87,0,0,1,17.76,21.52ZM3.27,7a.79.79,0,0,1-.79-.79.81.81,0,0,1,.16-.47A8.43,8.43,0,0,1,8,2.5a.79.79,0,1,1,.32,1.55A6.81,6.81,0,0,0,3.91,6.71.81.81,0,0,1,3.27,7Z"/></svg>