<svg id="Слой_1" data-name="Слой 1" xmlns="http://www.w3.org/2000/svg" viewBox="0 0 24 24"><defs><style>.cls-1{fill:#010101;}</style></defs><path class="cls-1" d="M17.55,21.52H12.86c-5.55,0-10-3.8-10.36-8.84A9.52,9.52,0,0,1,12.66,2.5a9.69,9.69,0,0,1,8.86,9.77v5.28A4,4,0,0,1,17.55,21.52ZM12,4.07a7.94,7.94,0,0,0-7.92,8.5c.29,4.27,4,7.36,8.77,7.36h4.69a2.39,2.39,0,0,0,2.38-2.38V12.27a8.09,8.09,0,0,0-7.37-8.18,5.15,5.15,0,0,0-.55,0Zm2.37,6a.5.5,0,0,0-.5-.5,1.08,1.08,0,0,0-.82.38L12,11.21,10.93,10a1,1,0,0,0-.81-.36.5.5,0,0,0-.5.5v3.76a.5.5,0,1,0,1,0V11.29l1,1.1a.5.5,0,0,0,.74,0l1-1.1v2.59h0a.5.5,0,1,0,1,0h0V10.11ZM7.61,11.58l-1-.4a.24.24,0,0,1-.1-.24.37.37,0,0,1,.29-.29.88.88,0,0,1,.27,0,1.5,1.5,0,0,1,.76.27.44.44,0,0,0,.32.13.49.49,0,0,0,.49-.5.47.47,0,0,0-.19-.38A2.38,2.38,0,0,0,7,9.62a1.77,1.77,0,0,0-.54.08,1.35,1.35,0,0,0-1,1.09,1.25,1.25,0,0,0,.62,1.26s.53.24,1.13.46c.13,0,.53.22.48.49a.61.61,0,0,1-.64.41,1.28,1.28,0,0,1-1-.4.55.55,0,0,0-.37-.16.49.49,0,0,0-.49.5.46.46,0,0,0,.13.32,2.29,2.29,0,0,0,1.68.73,1.58,1.58,0,0,0,1.62-1.23,1.44,1.44,0,0,0-1.12-1.59Zm10,0-1-.4a.26.26,0,0,1-.11-.24.37.37,0,0,1,.29-.29.9.9,0,0,1,.28,0,1.49,1.49,0,0,1,.75.27.44.44,0,0,0,.32.13.49.49,0,0,0,.49-.5.47.47,0,0,0-.19-.38A2.38,2.38,0,0,0,17,9.62a1.77,1.77,0,0,0-.54.08,1.35,1.35,0,0,0-1,1.09,1.25,1.25,0,0,0,.62,1.26s.54.24,1.13.46c.13,0,.53.22.49.49a.63.63,0,0,1-.65.41,1.28,1.28,0,0,1-.95-.4.53.53,0,0,0-.37-.16.49.49,0,0,0-.49.5.46.46,0,0,0,.13.32,2.33,2.33,0,0,0,1.68.73,1.58,1.58,0,0,0,1.62-1.23,1.44,1.44,0,0,0-1.12-1.59Z"/></svg>