<svg id="Слой_1" data-name="Слой 1" xmlns="http://www.w3.org/2000/svg" viewBox="0 0 24 24"><defs><style>.cls-1{fill:#010101;}</style></defs><path class="cls-1" d="M20.73,11.21H19.14V9.62a.8.8,0,0,0-1.59,0v1.59H16a.79.79,0,1,0,0,1.58h1.58v1.59a.8.8,0,0,0,1.59,0V12.79h1.59a.79.79,0,1,0,0-1.58Z"/><path class="cls-1" d="M9.62,12A4.76,4.76,0,1,0,4.86,7.24,4.76,4.76,0,0,0,9.62,12Zm0-7.93A3.17,3.17,0,1,1,6.45,7.24,3.17,3.17,0,0,1,9.62,4.07Z"/><path class="cls-1" d="M9.62,13.59a7.14,7.14,0,0,0-7.14,7.14.8.8,0,0,0,1.59,0,5.55,5.55,0,1,1,11.1,0,.8.8,0,0,0,1.59,0A7.14,7.14,0,0,0,9.62,13.59Z"/></svg>