<svg id="Слой_1" data-name="Слой 1" xmlns="http://www.w3.org/2000/svg" viewBox="0 0 24 24"><defs><style>.cls-1{fill:#010101;}</style></defs><g id="_01_align_center" data-name=" 01 align center"><path class="cls-1" d="M21,15.33,18.92,7.9a7.39,7.39,0,0,0-14.34.37L3,15.45A2.38,2.38,0,0,0,4.8,18.29a2.84,2.84,0,0,0,.51.05H8.17a4,4,0,0,0,7.77,0h2.75A2.38,2.38,0,0,0,21.07,16a2.28,2.28,0,0,0-.09-.63Zm-8.93,4.6a2.39,2.39,0,0,1-2.23-1.59h4.47A2.4,2.4,0,0,1,12.05,19.93Zm7.27-3.49a.79.79,0,0,1-.63.32H5.31a.79.79,0,0,1-.79-.8.52.52,0,0,1,0-.17L6.13,8.62a5.8,5.8,0,0,1,11.26-.3l2.06,7.43A.77.77,0,0,1,19.32,16.44Z"/></g></svg>