<svg id="Слой_1" data-name="Слой 1" xmlns="http://www.w3.org/2000/svg" viewBox="0 0 24 24"><defs><style>.cls-1{fill:#010101;}</style></defs><path class="cls-1" d="M15.17,8.83a.79.79,0,0,0-1.12,0L12,10.88,10,8.83A.79.79,0,0,0,8.83,10L10.88,12,8.83,14.05A.79.79,0,0,0,10,15.17L12,13.12l2.05,2.05a.79.79,0,0,0,1.12-1.12L13.12,12,15.17,10A.79.79,0,0,0,15.17,8.83Z"/><path class="cls-1" d="M12,2.48A9.52,9.52,0,1,0,21.52,12,9.52,9.52,0,0,0,12,2.48Zm0,17.45A7.93,7.93,0,1,1,19.93,12,7.93,7.93,0,0,1,12,19.93Z"/></svg>