<svg id="Слой_1" data-name="Слой 1" xmlns="http://www.w3.org/2000/svg" viewBox="0 0 24 24"><defs><style>.cls-1{fill:#010101;}</style></defs><path class="cls-1" d="M18.34,8.83a3.18,3.18,0,1,1,3.18-3.18A3.17,3.17,0,0,1,18.34,8.83Zm0-4.76a1.59,1.59,0,1,0,1.59,1.58A1.58,1.58,0,0,0,18.34,4.07ZM19.5,21.52h-7a2.06,2.06,0,0,1-1.77-1,2,2,0,0,1,0-2l3.52-6.31A2.06,2.06,0,0,1,17,11.49a2.1,2.1,0,0,1,.75.76l3.51,6.3a2,2,0,0,1,0,2A2.05,2.05,0,0,1,19.5,21.52ZM16,12.79a.45.45,0,0,0-.39.23l-3.52,6.31a.39.39,0,0,0,0,.39.45.45,0,0,0,.4.21h7a.45.45,0,0,0,.4-.22.37.37,0,0,0,0-.38L16.38,13h0A.46.46,0,0,0,16,12.79ZM8.83,20.73a.8.8,0,0,0-.8-.8H5.14a1.07,1.07,0,0,1-1.07-1.07,1,1,0,0,1,.13-.51L9.47,8.59A1.09,1.09,0,0,1,10.41,8h0a1.07,1.07,0,0,1,.94.56l1,1.8a.79.79,0,0,0,1.4-.75l-1-1.8a2.65,2.65,0,0,0-3.6-1.07A2.57,2.57,0,0,0,8.08,7.84L2.8,17.6a2.65,2.65,0,0,0,1.08,3.6,2.62,2.62,0,0,0,1.26.32H8A.8.8,0,0,0,8.83,20.73Z"/></svg>