<svg id="Слой_1" data-name="Слой 1" xmlns="http://www.w3.org/2000/svg" viewBox="0 0 24 24"><defs><style>.cls-1{fill:#010101;}</style></defs><g id="_01_align_center" data-name=" 01 align center"><path class="cls-1" d="M16.36,3.12A5.08,5.08,0,0,0,12,5.74,5.08,5.08,0,0,0,7.64,3.12,5.39,5.39,0,0,0,2.49,8.71c0,5.37,8.68,11.58,9,11.84l.46.33.46-.33c.37-.26,9.05-6.47,9.05-11.84A5.39,5.39,0,0,0,16.36,3.12ZM12,18.92C9.42,17,4.07,12.26,4.07,8.71a3.8,3.8,0,0,1,3.57-4,3.8,3.8,0,0,1,3.57,4h1.58a3.8,3.8,0,0,1,3.57-4,3.8,3.8,0,0,1,3.57,4C19.93,12.27,14.58,17,12,18.92Z"/></g></svg>