<svg id="Слой_1" data-name="Слой 1" xmlns="http://www.w3.org/2000/svg" viewBox="0 0 24 24"><defs><style>.cls-1{fill:#010101;}</style></defs><path class="cls-1" d="M12,12A4.76,4.76,0,1,0,7.24,7.24,4.76,4.76,0,0,0,12,12Zm0-7.93A3.17,3.17,0,1,1,8.83,7.24,3.17,3.17,0,0,1,12,4.07Z"/><path class="cls-1" d="M12,13.59c-4.5,0-8.15,3.19-8.15,7.14a.85.85,0,0,0,.9.79.86.86,0,0,0,.91-.79c0-3.07,2.84-5.56,6.34-5.56s6.34,2.49,6.34,5.56a.86.86,0,0,0,.91.79.85.85,0,0,0,.9-.79C20.15,16.78,16.5,13.59,12,13.59Z"/></svg>