<svg id="Слой_1" data-name="Слой 1" xmlns="http://www.w3.org/2000/svg" viewBox="0 0 24 24"><defs><style>.cls-1{fill:#010101;}</style></defs><path class="cls-1" d="M7.93,3H5.61A3.09,3.09,0,0,0,2.52,6.05V8.37a3.09,3.09,0,0,0,3.09,3.1H7.93A3.09,3.09,0,0,0,11,8.37V6.05A3.09,3.09,0,0,0,7.93,3ZM9.48,8.37A1.55,1.55,0,0,1,7.93,9.92H5.61A1.55,1.55,0,0,1,4.06,8.37V6.05A1.55,1.55,0,0,1,5.61,4.51H7.93A1.55,1.55,0,0,1,9.48,6.05Z"/><path class="cls-1" d="M14.64,3.39,13,5A3.1,3.1,0,0,0,13,9.4L14.64,11A3.08,3.08,0,0,0,19,11L20.65,9.4a3.08,3.08,0,0,0,0-4.37L19,3.39A3.08,3.08,0,0,0,14.64,3.39Zm4.92,2.73a1.56,1.56,0,0,1,0,2.19L17.92,10a1.56,1.56,0,0,1-2.19,0L14.09,8.31a1.54,1.54,0,0,1,0-2.19l1.64-1.64a1.56,1.56,0,0,1,2.19,0Z"/><path class="cls-1" d="M7.93,13H5.61a3.09,3.09,0,0,0-3.09,3.1v2.32a3.09,3.09,0,0,0,3.09,3.09H7.93A3.09,3.09,0,0,0,11,18.43V16.11A3.09,3.09,0,0,0,7.93,13Zm1.55,5.42A1.55,1.55,0,0,1,7.93,20H5.61a1.55,1.55,0,0,1-1.55-1.54V16.11a1.55,1.55,0,0,1,1.55-1.55H7.93a1.55,1.55,0,0,1,1.55,1.55Z"/><path class="cls-1" d="M18,13H15.66a3.09,3.09,0,0,0-3.09,3.1v2.32a3.09,3.09,0,0,0,3.09,3.09H18a3.09,3.09,0,0,0,3.09-3.09V16.11A3.09,3.09,0,0,0,18,13Zm1.55,5.42A1.54,1.54,0,0,1,18,20H15.66a1.54,1.54,0,0,1-1.54-1.54V16.11a1.54,1.54,0,0,1,1.54-1.55H18a1.54,1.54,0,0,1,1.55,1.55Z"/></svg>