<svg id="Слой_1" data-name="Слой 1" xmlns="http://www.w3.org/2000/svg" viewBox="0 0 24 24"><defs><style>.cls-1{fill:#010101;}</style></defs><path class="cls-1" d="M10.81,12a.8.8,0,0,1,0,1.59H8.43a.8.8,0,0,1,0-1.59Zm4.76-2.38a.79.79,0,0,0-.79-.79H8.43a.79.79,0,1,0,0,1.58h6.35A.79.79,0,0,0,15.57,9.62ZM8.43,7.24h6.35a.79.79,0,0,0,.79-.79.8.8,0,0,0-.79-.8H8.43a.79.79,0,0,0-.79.8A.79.79,0,0,0,8.43,7.24ZM18,17.91v3a.58.58,0,0,1-.57.57.58.58,0,0,1-.41-.17l-.61-.61-.61.61a.58.58,0,0,1-.81,0,.59.59,0,0,1-.16-.4v-3A3.16,3.16,0,0,1,16.36,12a3.09,3.09,0,0,1,.8.11V6.45a2.38,2.38,0,0,0-2.38-2.38H8.43A2.38,2.38,0,0,0,6.05,6.45V16a2.39,2.39,0,0,0,2.38,2.38h4a.79.79,0,0,1,0,1.58h-4a4,4,0,0,1-4-4V6.45a4,4,0,0,1,4-4h6.35a4,4,0,0,1,4,4V13.1a3.13,3.13,0,0,1-.25,4.42,3.36,3.36,0,0,1-.54.39Zm0-2.74a1.59,1.59,0,1,0-1.59,1.59A1.59,1.59,0,0,0,18,15.17Z"/></svg>