<svg width="26" height="26" viewBox="0 0 26 26" fill="none" xmlns="http://www.w3.org/2000/svg">
<path d="M19.6517 23.4217C18.6983 23.7033 17.5717 23.8334 16.25 23.8334H9.74999C8.42833 23.8334 7.30166 23.7033 6.34833 23.4217C6.58666 20.605 9.47916 18.3842 13 18.3842C16.5208 18.3842 19.4133 20.605 19.6517 23.4217Z" stroke="#1173AE" stroke-width="1.5" stroke-linecap="round" stroke-linejoin="round"/>
<path d="M16.25 2.16666H9.75002C4.33335 2.16666 2.16669 4.33332 2.16669 9.74999V16.25C2.16669 20.345 3.40169 22.5875 6.34835 23.4217C6.58669 20.605 9.47919 18.3841 13 18.3841C16.5209 18.3841 19.4134 20.605 19.6517 23.4217C22.5984 22.5875 23.8334 20.345 23.8334 16.25V9.74999C23.8334 4.33332 21.6667 2.16666 16.25 2.16666ZM13 15.3508C10.855 15.3508 9.12169 13.6067 9.12169 11.4617C9.12169 9.31668 10.855 7.58332 13 7.58332C15.145 7.58332 16.8784 9.31668 16.8784 11.4617C16.8784 13.6067 15.145 15.3508 13 15.3508Z" stroke="#1173AE" stroke-width="1.5" stroke-linecap="round" stroke-linejoin="round"/>
<path d="M16.8783 11.4617C16.8783 13.6067 15.145 15.3508 13 15.3508C10.855 15.3508 9.12164 13.6067 9.12164 11.4617C9.12164 9.3167 10.855 7.58334 13 7.58334C15.145 7.58334 16.8783 9.3167 16.8783 11.4617Z" stroke="#1173AE" stroke-width="1.5" stroke-linecap="round" stroke-linejoin="round"/>
</svg>
