<svg id="Слой_1" data-name="Слой 1" xmlns="http://www.w3.org/2000/svg" viewBox="0 0 24 24"><defs><style>.cls-1{fill:#010101;}</style></defs><g id="_Group_2" data-name=" Group 2"><g id="_Group_3" data-name=" Group 3"><path id="_Path_" data-name=" Path " class="cls-1" d="M17.19,12.61A4.32,4.32,0,0,1,19.25,9a4.4,4.4,0,0,0-3.49-1.89c-1.47-.15-2.89.88-3.64.88S10.21,7.1,9,7.13A4.65,4.65,0,0,0,5.06,9.51c-1.69,2.93-.43,7.23,1.19,9.6.81,1.16,1.76,2.45,3,2.41s1.66-.78,3.12-.78,1.88.78,3.14.75,2.12-1.17,2.91-2.34a9.29,9.29,0,0,0,1.32-2.7A4.18,4.18,0,0,1,17.19,12.61Z"/><path id="_Path_2" data-name=" Path 2" class="cls-1" d="M14.8,5.53a4.27,4.27,0,0,0,1-3.05A4.36,4.36,0,0,0,13,3.93a4.06,4.06,0,0,0-1,2.94A3.56,3.56,0,0,0,14.8,5.53Z"/></g></g></svg>