<svg id="Слой_1" data-name="Слой 1" xmlns="http://www.w3.org/2000/svg" viewBox="0 0 24 24"><defs><style>.cls-1{fill:#010101;}</style></defs><path class="cls-1" d="M20.82,9.66l-6-6a4,4,0,0,0-5.6,0l-6,6a2.35,2.35,0,0,0-.7,1.68v7.79a2.39,2.39,0,0,0,2.38,2.38H19.14a2.39,2.39,0,0,0,2.38-2.38V11.34A2.35,2.35,0,0,0,20.82,9.66ZM14.38,19.92H9.62V16.8a2.38,2.38,0,0,1,4.76,0Zm5.55-.79a.79.79,0,0,1-.79.79H16V16.8A4,4,0,0,0,8,16.8v3.12H4.86a.79.79,0,0,1-.79-.79V11.34a.79.79,0,0,1,.23-.56l6-6a2.39,2.39,0,0,1,3.36,0l6,6a.79.79,0,0,1,.23.56Z"/></svg>