<svg id="Слой_1" data-name="Слой 1" xmlns="http://www.w3.org/2000/svg" viewBox="0 0 24 24"><defs><style>.cls-1{fill:#010101;}</style></defs><path class="cls-1" d="M17.55,2.48H6.45a4,4,0,0,0-4,4v11.1a4,4,0,0,0,4,4h9a4,4,0,0,0,2.81-1.16l2.11-2.11a4,4,0,0,0,1.16-2.81v-9A4,4,0,0,0,17.55,2.48ZM4.07,17.55V6.45A2.37,2.37,0,0,1,6.45,4.07h11.1a2.37,2.37,0,0,1,2.38,2.38v7.93H16.76a2.37,2.37,0,0,0-2.38,2.38v3.17H6.45A2.37,2.37,0,0,1,4.07,17.55Zm13.06,1.68a2.43,2.43,0,0,1-1.16.64V16.76a.79.79,0,0,1,.79-.79h3.11a2.45,2.45,0,0,1-.63,1.16ZM13.59,9.69V8a1.57,1.57,0,0,1,1.58-1.57h0a1.61,1.61,0,0,1,1.41.85.49.49,0,0,1-.21.67.48.48,0,0,1-.67-.21.65.65,0,0,0-.53-.32.59.59,0,0,0-.59.58h0V9.67a.58.58,0,0,0,.58.6h0a.6.6,0,0,0,.6-.58V9.62h-.2a.4.4,0,0,1-.4-.4.39.39,0,0,1,.4-.39h.59a.59.59,0,0,1,.6.59v.27a1.59,1.59,0,0,1-3.17,0ZM8.83,7V9.63a1.65,1.65,0,0,1-1.65,1.63h0a1.67,1.67,0,0,1-1.47-.93.52.52,0,0,1,.92-.48v0a.65.65,0,0,0,.55.36.61.61,0,0,0,.62-.6V7a.52.52,0,0,1,1,0Zm2.45-.51h-.87a.79.79,0,0,0-.79.79v3.53a.5.5,0,0,0,1,0v-1h.67a1.68,1.68,0,0,0,0-3.35Zm0,2.35h-.66V7.44h.67a.68.68,0,1,1,0,1.36Z"/></svg>