<svg width="26" height="26" viewBox="0 0 26 26" fill="none" xmlns="http://www.w3.org/2000/svg">
<path d="M17.5392 2.16669H8.46085C4.51752 2.16669 2.16669 4.51752 2.16669 8.46085V17.5392C2.16669 20.5834 3.56419 22.6742 6.02335 23.465C6.73835 23.7142 7.56169 23.8334 8.46085 23.8334H17.5392C18.4384 23.8334 19.2617 23.7142 19.9767 23.465C22.4359 22.6742 23.8334 20.5834 23.8334 17.5392V8.46085C23.8334 4.51752 21.4825 2.16669 17.5392 2.16669ZM22.2084 17.5392C22.2084 19.8575 21.2984 21.32 19.4675 21.9267C18.4167 19.8575 15.925 18.3842 13 18.3842C10.075 18.3842 7.59419 19.8467 6.53252 21.9267H6.52169C4.71252 21.3417 3.79169 19.8684 3.79169 17.55V8.46085C3.79169 5.40585 5.40585 3.79169 8.46085 3.79169H17.5392C20.5942 3.79169 22.2084 5.40585 22.2084 8.46085V17.5392Z" fill="#1173AE"/>
<path d="M13 8.66669C10.855 8.66669 9.1217 10.4 9.1217 12.545C9.1217 14.69 10.855 16.4342 13 16.4342C15.145 16.4342 16.8784 14.69 16.8784 12.545C16.8784 10.4 15.145 8.66669 13 8.66669Z" fill="#1173AE"/>
</svg>
