<svg id="Слой_1" data-name="Слой 1" xmlns="http://www.w3.org/2000/svg" viewBox="0 0 24 24"><defs><style>.cls-1{fill:#010101;}</style></defs><path class="cls-1" d="M10.32,16.86a2.37,2.37,0,0,0,3.36,0h0l2.55-2.55a.79.79,0,0,0-1.12-1.12l-2.32,2.32V3.27A.79.79,0,0,0,12,2.48h0a.79.79,0,0,0-.79.79V15.5L8.89,13.19a.79.79,0,0,0-1.12,1.12Z"/><path class="cls-1" d="M20.73,15.17h0a.8.8,0,0,0-.8.8v3.17a.79.79,0,0,1-.79.79H4.86a.79.79,0,0,1-.79-.79V16a.8.8,0,0,0-.8-.8h0a.8.8,0,0,0-.79.8v3.17a2.39,2.39,0,0,0,2.38,2.38H19.14a2.39,2.39,0,0,0,2.38-2.38V16A.8.8,0,0,0,20.73,15.17Z"/></svg>