<svg id="Слой_1" data-name="Слой 1" xmlns="http://www.w3.org/2000/svg" viewBox="0 0 24 24"><defs><style>.cls-1{fill:#010101;}</style></defs><path class="cls-1" d="M18.45,21.52a2.21,2.21,0,0,1-1.57-.67L12,16,7.12,20.86a2.25,2.25,0,0,1-3.84-1.6V6.45a4,4,0,0,1,4-4h9.52a4,4,0,0,1,4,4V19.26a2.22,2.22,0,0,1-1.38,2.08A2.25,2.25,0,0,1,18.45,21.52ZM7.24,4.07A2.38,2.38,0,0,0,4.86,6.45V19.26a.67.67,0,0,0,.67.67.63.63,0,0,0,.47-.2H6l5.44-5.41a.81.81,0,0,1,1.12,0L18,19.73a.68.68,0,0,0,.95,0,.7.7,0,0,0,.19-.47V6.45a2.38,2.38,0,0,0-2.38-2.38Z"/></svg>