<svg id="Слой_1" data-name="Слой 1" xmlns="http://www.w3.org/2000/svg" viewBox="0 0 24 24"><defs><style>.cls-1{fill:#010101;}</style></defs><path class="cls-1" d="M18.35,4.86A2.39,2.39,0,0,0,16,2.48H4.86A2.39,2.39,0,0,0,2.48,4.86V6.45A2.39,2.39,0,0,0,4.86,8.83H16a2.39,2.39,0,0,0,2.38-2.38A1.58,1.58,0,0,1,19.93,8v.8a1.58,1.58,0,0,1-1.58,1.58H12.79a3.18,3.18,0,0,0-3.17,3.18v.14A2.38,2.38,0,0,0,8,16v3.17a2.38,2.38,0,0,0,4.76,0V16a2.37,2.37,0,0,0-1.58-2.24v-.14A1.59,1.59,0,0,1,12.79,12h5.56a3.17,3.17,0,0,0,3.17-3.17V8A3.17,3.17,0,0,0,18.35,4.86ZM16.76,6.45a.79.79,0,0,1-.79.79H4.86a.79.79,0,0,1-.79-.79V4.86a.79.79,0,0,1,.79-.79H16a.79.79,0,0,1,.79.79ZM11.21,19.14a.8.8,0,0,1-1.59,0V16a.8.8,0,1,1,1.59,0Z"/></svg>