<?xml version="1.0" encoding="utf-8"?>
<!-- Generator: Adobe Illustrator 26.2.1, SVG Export Plug-In . SVG Version: 6.00 Build 0)  -->
<svg version="1.1" id="Слой_1" xmlns="http://www.w3.org/2000/svg" xmlns:xlink="http://www.w3.org/1999/xlink" x="0px" y="0px"
	 viewBox="0 0 24 24" style="enable-background:new 0 0 24 24;" xml:space="preserve">
<style type="text/css">
	.st0{fill:#010101;}
</style>
<path class="st0" d="M12,2.5c-5.3,0-9.5,4.3-9.5,9.5s4.3,9.5,9.5,9.5s9.5-4.3,9.5-9.5c0,0,0,0,0,0C21.5,6.7,17.3,2.5,12,2.5z
	 M15.2,12.8h-2.4v2.4c0,0.4-0.4,0.8-0.8,0.8c-0.4,0-0.8-0.4-0.8-0.8c0,0,0,0,0,0v-2.4H8.8C8.4,12.8,8,12.4,8,12
	c0-0.4,0.4-0.8,0.8-0.8c0,0,0,0,0,0h2.4V8.8C11.2,8.4,11.6,8,12,8c0.4,0,0.8,0.4,0.8,0.8c0,0,0,0,0,0v2.4h2.4c0.4,0,0.8,0.4,0.8,0.8
	C16,12.4,15.6,12.8,15.2,12.8C15.2,12.8,15.2,12.8,15.2,12.8z"/>
</svg>
