<svg id="Слой_1" data-name="Слой 1" xmlns="http://www.w3.org/2000/svg" viewBox="0 0 24 24"><defs><style>.cls-1{fill:#1d1d1b;}</style></defs><path class="cls-1" d="M7.37,20.9a2.33,2.33,0,0,1-.59-1.72V4.82A2.35,2.35,0,0,1,7.37,3.1,2.17,2.17,0,0,1,9,2.48h6a2.16,2.16,0,0,1,1.64.62,2.35,2.35,0,0,1,.59,1.72V19.18a2.33,2.33,0,0,1-.59,1.72,2.16,2.16,0,0,1-1.64.62H9A2.17,2.17,0,0,1,7.37,20.9Zm7.52-.32A1.43,1.43,0,0,0,16,20.21a1.56,1.56,0,0,0,.36-1.14V4.93A1.56,1.56,0,0,0,16,3.79a1.43,1.43,0,0,0-1.08-.37H13.82c-.12,0-.18.07-.18.2v.14a.57.57,0,0,1-.14.4.47.47,0,0,1-.37.16H10.88a.44.44,0,0,1-.37-.16.57.57,0,0,1-.14-.4V3.62c0-.13-.06-.2-.19-.2H9.11A1.44,1.44,0,0,0,8,3.79a1.6,1.6,0,0,0-.35,1.14V19.07A1.6,1.6,0,0,0,8,20.21a1.44,1.44,0,0,0,1.09.37ZM10,19.84a.35.35,0,0,1-.1-.24.33.33,0,0,1,.1-.24.32.32,0,0,1,.22-.1h3.63a.29.29,0,0,1,.22.1.32.32,0,0,1,.09.24.34.34,0,0,1-.09.24.28.28,0,0,1-.22.09H10.19A.31.31,0,0,1,10,19.84Z"/></svg>