<svg id="Слой_1" data-name="Слой 1" xmlns="http://www.w3.org/2000/svg" viewBox="0 0 24 24"><defs><style>.cls-1{fill:#010101;}</style></defs><path class="cls-1" d="M17.21,9.16V8A5.39,5.39,0,0,0,12,2.48,5.39,5.39,0,0,0,6.79,8V9.16a4,4,0,0,0-2.24,3.63v4.76a3.86,3.86,0,0,0,3.73,4h7.44a3.86,3.86,0,0,0,3.73-4V12.79A4,4,0,0,0,17.21,9.16ZM8.28,8a3.84,3.84,0,0,1,3.72-4,3.84,3.84,0,0,1,3.72,4v.8H8.28ZM18,17.55a2.31,2.31,0,0,1-2.24,2.38H8.28A2.31,2.31,0,0,1,6,17.55V12.79a2.31,2.31,0,0,1,2.24-2.38h7.44A2.31,2.31,0,0,1,18,12.79Z"/><path class="cls-1" d="M12,13.59a.76.76,0,0,0-.74.79V16a.74.74,0,1,0,1.48,0V14.38A.76.76,0,0,0,12,13.59Z"/></svg>