<svg id="Слой_1" data-name="Слой 1" xmlns="http://www.w3.org/2000/svg" viewBox="0 0 24 24"><defs><style>.cls-1{fill:#010101;}</style></defs><path class="cls-1" d="M20.37,3.21a3.15,3.15,0,0,0-2.61-.67L10.48,3.9A4,4,0,0,0,7.24,7.8v7.81a3.27,3.27,0,0,0-1.59-.44,3.18,3.18,0,1,0,3.18,3.18V11.11a1.58,1.58,0,0,1,1.29-1.56L19,7.88a.8.8,0,0,1,.93.64.76.76,0,0,1,0,.15v4.57A3.16,3.16,0,1,0,21.52,16V5.65A3.18,3.18,0,0,0,20.37,3.21ZM5.65,19.93a1.59,1.59,0,1,1,1.59-1.58A1.58,1.58,0,0,1,5.65,19.93ZM18.7,6.33,9.83,8a3.26,3.26,0,0,0-1,.37V7.8a2.38,2.38,0,0,1,1.94-2.34L18.05,4.1A1.57,1.57,0,0,1,19.9,5.36a1.5,1.5,0,0,1,0,.29v.78A2.34,2.34,0,0,0,18.7,6.33Zm-.35,11.22A1.59,1.59,0,1,1,19.93,16,1.59,1.59,0,0,1,18.35,17.55Z"/></svg>