<svg id="Слой_1" data-name="Слой 1" xmlns="http://www.w3.org/2000/svg" viewBox="0 0 24 24"><defs><style>.cls-1{fill:#010101;}</style></defs><path class="cls-1" d="M17.52,2.54h-11A3.93,3.93,0,0,0,2.54,6.48v11a3.93,3.93,0,0,0,3.94,3.94h11a3.93,3.93,0,0,0,3.94-3.94v-11A3.93,3.93,0,0,0,17.52,2.54Zm.79,8.67h1.57v1.58H18.31Zm0-1.58V8.06h1.57V9.63Zm-1.58,1.58H7.27V4.12h9.46Zm-11,1.58H4.12V11.21H5.69Zm0-3.16H4.12V8.06H5.69ZM4.12,14.37H5.69v1.57H4.12Zm3.15-1.58h9.46v7.09H7.27Zm11,1.58h1.57v1.57H18.31Zm1.57-7.89H18.31V4.26A2.35,2.35,0,0,1,19.88,6.48ZM5.69,4.26V6.48H4.12A2.35,2.35,0,0,1,5.69,4.26ZM4.12,17.52H5.69v2.22A2.35,2.35,0,0,1,4.12,17.52Zm14.19,2.22V17.52h1.57A2.35,2.35,0,0,1,18.31,19.74Z"/></svg>