<svg id="Слой_1" data-name="Слой 1" xmlns="http://www.w3.org/2000/svg" viewBox="0 0 24 24"><defs><style>.cls-1{fill:#010101;}</style></defs><path class="cls-1" d="M12,8.82A3.18,3.18,0,1,0,15.18,12,3.19,3.19,0,0,0,12,8.82Zm0,4.77A1.59,1.59,0,1,1,13.59,12,1.59,1.59,0,0,1,12,13.59Z"/><path class="cls-1" d="M19.38,13.51l-.35-.2a7.21,7.21,0,0,0,0-2.62l.35-.2A2.38,2.38,0,1,0,17,6.36l-.35.2a7.13,7.13,0,0,0-2.27-1.3V4.85a2.38,2.38,0,0,0-4.76,0v.41A7,7,0,0,0,7.35,6.57L7,6.36a2.38,2.38,0,1,0-2.38,4.13h0l.35.2a7.21,7.21,0,0,0,0,2.62l-.35.2A2.38,2.38,0,1,0,7,17.64H7l.35-.2a7.13,7.13,0,0,0,2.27,1.3v.41a2.38,2.38,0,0,0,4.76,0v-.41a7,7,0,0,0,2.27-1.31l.35.21a2.38,2.38,0,1,0,2.38-4.13Zm-2-3a5.58,5.58,0,0,1,0,3,.78.78,0,0,0,.37.9l.86.5A.79.79,0,0,1,18.88,16a.8.8,0,0,1-1.09.29h0l-.86-.5a.79.79,0,0,0-1,.14,5.54,5.54,0,0,1-2.58,1.48.8.8,0,0,0-.6.77v1a.79.79,0,0,1-.79.79.79.79,0,0,1-.8-.79v-1a.78.78,0,0,0-.59-.77A5.58,5.58,0,0,1,8,15.89a.79.79,0,0,0-1-.13l-.86.5A.81.81,0,0,1,5.12,16a.8.8,0,0,1,.28-1.09h0l.86-.49a.78.78,0,0,0,.37-.9,5.58,5.58,0,0,1,0-3,.79.79,0,0,0-.37-.9l-.86-.5A.79.79,0,0,1,5.12,8a.8.8,0,0,1,1.09-.29l.86.5a.8.8,0,0,0,1-.13,5.56,5.56,0,0,1,2.58-1.49.8.8,0,0,0,.6-.78v-1a.79.79,0,0,1,1.58,0v1a.79.79,0,0,0,.6.77A5.58,5.58,0,0,1,16,8.11a.79.79,0,0,0,1,.13l.86-.5A.81.81,0,0,1,18.88,8a.8.8,0,0,1-.28,1.09h0l-.86.49a.79.79,0,0,0-.37.9Z"/></svg>