<svg id="Слой_1" data-name="Слой 1" xmlns="http://www.w3.org/2000/svg" viewBox="0 0 24 24"><defs><style>.cls-1{fill:#010101;}</style></defs><path class="cls-1" d="M17.28,3.22,7.61,12.89a3.88,3.88,0,0,0-1.16,2.8v1.07a.79.79,0,0,0,.79.79H8.31a3.88,3.88,0,0,0,2.8-1.16l9.67-9.67a2.47,2.47,0,0,0,0-3.5A2.52,2.52,0,0,0,17.28,3.22ZM19.66,5.6,10,15.27a2.46,2.46,0,0,1-1.68.7H8v-.28A2.46,2.46,0,0,1,8.73,14L18.4,4.34a.91.91,0,0,1,1.26,0A.89.89,0,0,1,19.66,5.6Z"/><path class="cls-1" d="M20.73,9.6a.8.8,0,0,0-.8.8v4H16.76a2.37,2.37,0,0,0-2.38,2.38v3.17H6.45a2.37,2.37,0,0,1-2.38-2.38V6.45A2.37,2.37,0,0,1,6.45,4.07h7.17a.8.8,0,0,0,0-1.59H6.45a4,4,0,0,0-4,4v11.1a4,4,0,0,0,4,4h9a4,4,0,0,0,2.81-1.16l2.11-2.11a4,4,0,0,0,1.16-2.81v-5A.8.8,0,0,0,20.73,9.6Zm-3.6,9.64a2.45,2.45,0,0,1-1.16.63V16.76a.79.79,0,0,1,.79-.79h3.11a2.49,2.49,0,0,1-.63,1.16Z"/></svg>