<svg id="Слой_1" data-name="Слой 1" xmlns="http://www.w3.org/2000/svg" viewBox="0 0 24 24"><defs><style>.cls-1{fill:#010101;}</style></defs><path class="cls-1" d="M14.38,12a.79.79,0,0,1-.79.79h-.8v3.57a2,2,0,1,1-2-2,1.81,1.81,0,0,1,.4,0V12.79a1.58,1.58,0,0,1,1.58-1.58h.8A.79.79,0,0,1,14.38,12Zm5.55-1.2v6.75a4,4,0,0,1-4,4H8a4,4,0,0,1-4-4V6.45a4,4,0,0,1,4-4h3.59a5.51,5.51,0,0,1,3.92,1.63l2.77,2.76A5.5,5.5,0,0,1,19.93,10.8ZM14.42,5.23a4.18,4.18,0,0,0-.83-.62V8a.79.79,0,0,0,.79.8H17.8A3.65,3.65,0,0,0,17.18,8Zm3.93,5.57c0-.13,0-.26,0-.39H14.38A2.38,2.38,0,0,1,12,8V4.11a2.45,2.45,0,0,0-.38,0H8A2.38,2.38,0,0,0,5.65,6.45h0v11.1A2.38,2.38,0,0,0,8,19.93H16a2.38,2.38,0,0,0,2.38-2.38Z"/></svg>