<svg id="Слой_1" data-name="Слой 1" xmlns="http://www.w3.org/2000/svg" viewBox="0 0 24 24"><defs><style>.cls-1{fill:#010101;}</style></defs><path class="cls-1" d="M12,18.35A6.37,6.37,0,0,0,18.35,12V8.83a6.35,6.35,0,0,0-12.7,0V12A6.37,6.37,0,0,0,12,18.35ZM12,4.07a4.76,4.76,0,0,1,4.69,4H14.38a.79.79,0,0,0-.79.8.79.79,0,0,0,.79.79h2.38v1.59H14.38a.79.79,0,1,0,0,1.58h2.31a4.76,4.76,0,0,1-9.38,0H9.62a.79.79,0,0,0,0-1.58H7.24V9.62H9.62a.79.79,0,0,0,.79-.79A.79.79,0,0,0,9.62,8H7.31A4.76,4.76,0,0,1,12,4.07Z"/><path class="cls-1" d="M20.73,12a.8.8,0,0,0-.8.79,7.14,7.14,0,0,1-7.14,7.14H11.21a7.14,7.14,0,0,1-7.14-7.14.8.8,0,0,0-1.59,0,8.74,8.74,0,0,0,8.73,8.73h1.58a8.74,8.74,0,0,0,8.73-8.73A.8.8,0,0,0,20.73,12Z"/></svg>