<svg id="Слой_1" data-name="Слой 1" xmlns="http://www.w3.org/2000/svg" viewBox="0 0 24 24"><defs><style>.cls-1{fill:#010101;}</style></defs><path class="cls-1" d="M17.53,3.31H12.79a4,4,0,0,0-3.95,4V13.6a3.9,3.9,0,0,0-2.37-.81,4,4,0,1,0,4,3.95V7.26a2.37,2.37,0,0,1,2.37-2.37h4.74A2.37,2.37,0,0,1,19.9,7.26V13.6a3.9,3.9,0,0,0-2.37-.81,4,4,0,1,0,3.95,3.95V7.26A4,4,0,0,0,17.53,3.31ZM6.47,19.11a2.37,2.37,0,1,1,2.37-2.37A2.37,2.37,0,0,1,6.47,19.11Zm11.06,0a2.37,2.37,0,1,1,2.37-2.37A2.37,2.37,0,0,1,17.53,19.11Z"/></svg>