<svg id="Слой_1" data-name="Слой 1" xmlns="http://www.w3.org/2000/svg" viewBox="0 0 24 24"><defs><style>.cls-1{fill:#010101;}</style></defs><path class="cls-1" d="M21.5,11.41A9.52,9.52,0,1,0,12,21.52h5.53a4,4,0,0,0,4-4Zm-1.58,6.15a2.38,2.38,0,0,1-2.38,2.37H12a7.94,7.94,0,0,1-5.93-2.65,7.83,7.83,0,0,1-2-6.19A8,8,0,0,1,11,4.15a8.77,8.77,0,0,1,1-.06,7.85,7.85,0,0,1,5,1.82,8,8,0,0,1,2.86,5.58Z"/><path class="cls-1" d="M8.82,9.63H12a.79.79,0,0,0,0-1.58H8.82a.79.79,0,0,0,0,1.58Z"/><path class="cls-1" d="M15.16,11.22H8.82a.79.79,0,0,0,0,1.58h6.34a.79.79,0,0,0,0-1.58Z"/><path class="cls-1" d="M15.16,14.39H8.82a.79.79,0,0,0,0,1.58h6.34a.79.79,0,0,0,0-1.58Z"/></svg>