<svg id="Слой_1" data-name="Слой 1" xmlns="http://www.w3.org/2000/svg" viewBox="0 0 24 24"><defs><style>.cls-1{fill:#010101;}</style></defs><path class="cls-1" d="M17.55,2.48H6.45a4,4,0,0,0-4,4v11.1a4,4,0,0,0,4,4h11.1a4,4,0,0,0,4-4V6.45A4,4,0,0,0,17.55,2.48ZM6.45,4.07h11.1a2.37,2.37,0,0,1,2.38,2.38v11.1a2.25,2.25,0,0,1-.24,1L12.43,11.3a4,4,0,0,0-5.61,0h0L4.07,14.05V6.45A2.37,2.37,0,0,1,6.45,4.07Zm0,15.86a2.37,2.37,0,0,1-2.38-2.38V16.29l3.87-3.86a2.38,2.38,0,0,1,3.36,0h0l7.27,7.26a2.25,2.25,0,0,1-1,.24Z"/><path class="cls-1" d="M15.17,10.81A2.78,2.78,0,1,0,12.4,8,2.77,2.77,0,0,0,15.17,10.81Zm0-4A1.19,1.19,0,1,1,14,8,1.19,1.19,0,0,1,15.17,6.84Z"/></svg>