<svg id="Слой_1" data-name="Слой 1" xmlns="http://www.w3.org/2000/svg" viewBox="0 0 24 24"><defs><style>.cls-1{fill:#010101;}</style></defs><path class="cls-1" d="M4.86,7.44V4.14A1.62,1.62,0,0,1,6.45,2.48H9.62a.83.83,0,1,1,0,1.66h-2L12.27,9a.21.21,0,0,0,.13.05h0A.17.17,0,0,0,12.52,9L18,3.35c.77-.77,1.85.43,1.13,1.17l-5.47,5.69a1.7,1.7,0,0,1-1.24.53h0a1.71,1.71,0,0,1-1.25-.54L6.45,5.28V7.44a.8.8,0,1,1-1.59,0Zm15.42,7.78c-3.56-3.71-13-3.72-16.56,0a4.4,4.4,0,0,0-1.24,3.12l.07.93A2.21,2.21,0,0,0,4.7,21.52l2-.27a2.2,2.2,0,0,0,2.1-2.19l.13-1.49A8.29,8.29,0,0,1,12,17a8.5,8.5,0,0,1,3.07.63l.13,1.48a2.21,2.21,0,0,0,2.1,2.19l2,.27a2.2,2.2,0,0,0,2.16-2.19l.06-1a4.38,4.38,0,0,0-1.24-3.06Z"/></svg>