<svg id="Слой_1" data-name="Слой 1" xmlns="http://www.w3.org/2000/svg" viewBox="0 0 24 24"><defs><style>.cls-1{fill:#010101;}</style></defs><path class="cls-1" d="M18.35,2.48H5.65A3.17,3.17,0,0,0,2.48,5.65v9.52a3.18,3.18,0,0,0,3.17,3.18H8l3.54,3a.79.79,0,0,0,1,0l3.54-3h2.3a3.18,3.18,0,0,0,3.17-3.18V5.65A3.17,3.17,0,0,0,18.35,2.48Zm1.58,12.69a1.59,1.59,0,0,1-1.58,1.59h-2.3a1.61,1.61,0,0,0-1,.37l-3,2.56L9,17.13H9a1.61,1.61,0,0,0-1-.37H5.65a1.59,1.59,0,0,1-1.58-1.59V5.65A1.58,1.58,0,0,1,5.65,4.07h12.7a1.58,1.58,0,0,1,1.58,1.58Z"/><path class="cls-1" d="M8,8h4a.79.79,0,0,0,0-1.58H8A.79.79,0,0,0,8,8Z"/><path class="cls-1" d="M16,9.62H8a.8.8,0,0,0,0,1.59H16a.8.8,0,0,0,0-1.59Z"/><path class="cls-1" d="M16,12.79H8a.8.8,0,0,0,0,1.59H16a.8.8,0,0,0,0-1.59Z"/></svg>