<svg id="Слой_1" data-name="Слой 1" xmlns="http://www.w3.org/2000/svg" viewBox="0 0 24 24"><defs><style>.cls-1{fill:#010101;}</style></defs><path class="cls-1" d="M17.55,8.83H9.27L14.2,3.89a.79.79,0,1,0-1.12-1.12l-5.7,5.7a1.59,1.59,0,0,0,0,2.25l5.7,5.7a.78.78,0,0,0,.56.23.76.76,0,0,0,.56-.23.79.79,0,0,0,0-1.12L9.32,10.41h8.23a2.39,2.39,0,0,1,2.38,2.38v7.94a.8.8,0,0,0,1.59,0V12.79A4,4,0,0,0,17.55,8.83Z"/><path class="cls-1" d="M4.53,10.66a1.58,1.58,0,0,1,0-2.24L9.11,3.84a.8.8,0,0,0,0-1.13A.79.79,0,0,0,8,2.71L3.41,7.3a3.16,3.16,0,0,0,0,4.48L8,16.37a.82.82,0,0,0,.56.23.79.79,0,0,0,.56-.23.8.8,0,0,0,0-1.13Z"/></svg>