<svg id="Слой_1" data-name="Слой 1" xmlns="http://www.w3.org/2000/svg" viewBox="0 0 24 24"><defs><style>.cls-1{fill:#1d1d1b;}</style></defs><path class="cls-1" d="M3.1,4.32A.49.49,0,0,1,3,4a.5.5,0,0,1,.52-.51.45.45,0,0,1,.35.15l17.06,17A.49.49,0,0,1,21,21a.44.44,0,0,1-.15.37.54.54,0,0,1-.36.15.49.49,0,0,1-.36-.15ZM5.41,14.86A1.75,1.75,0,0,1,5,13.58V9.26A1.72,1.72,0,0,1,5.42,8L16.84,19.37a1.1,1.1,0,0,1-.27.65.73.73,0,0,1-.6.25,1,1,0,0,1-.5-.13A3.35,3.35,0,0,1,15,19.8l-4.83-4.39a.49.49,0,0,0-.35-.13H6.65A1.66,1.66,0,0,1,5.41,14.86ZM9.05,7.42H10a.45.45,0,0,0,.31-.11L15,3a3.48,3.48,0,0,1,.5-.38,1,1,0,0,1,.5-.14.81.81,0,0,1,.65.28,1,1,0,0,1,.24.66v11.8Z"/></svg>