<svg width="26" height="26" viewBox="0 0 26 26" fill="none" xmlns="http://www.w3.org/2000/svg">
<path d="M17.5391 2.16669H8.46079C4.51746 2.16669 2.16663 4.51752 2.16663 8.46085V17.5284C2.16663 21.4825 4.51746 23.8334 8.46079 23.8334H17.5283C21.4716 23.8334 23.8225 21.4825 23.8225 17.5392V8.46085C23.8333 4.51752 21.4825 2.16669 17.5391 2.16669ZM8.66663 14.0834C8.05996 14.0834 7.58329 13.5959 7.58329 13C7.58329 12.4042 8.07079 11.9167 8.66663 11.9167C9.26246 11.9167 9.74996 12.4042 9.74996 13C9.74996 13.5959 9.27329 14.0834 8.66663 14.0834ZM13 14.0834C12.3933 14.0834 11.9166 13.5959 11.9166 13C11.9166 12.4042 12.4041 11.9167 13 11.9167C13.5958 11.9167 14.0833 12.4042 14.0833 13C14.0833 13.5959 13.6066 14.0834 13 14.0834ZM17.3333 14.0834C16.7266 14.0834 16.25 13.5959 16.25 13C16.25 12.4042 16.7375 11.9167 17.3333 11.9167C17.9291 11.9167 18.4166 12.4042 18.4166 13C18.4166 13.5959 17.94 14.0834 17.3333 14.0834Z" fill="#1173AE"/>
</svg>
