<svg id="Слой_1" data-name="Слой 1" xmlns="http://www.w3.org/2000/svg" viewBox="0 0 24 24"><defs><style>.cls-1{fill:#010101;}</style></defs><path class="cls-1" d="M7.65,20.09a.79.79,0,0,1-.79-.79.78.78,0,0,1,.38-.67C10,17,10,13.36,10,11.21a2.36,2.36,0,1,1,4.72,0,.79.79,0,0,1-1.58,0,.79.79,0,0,0-1.57,0c0,2.32,0,6.64-3.55,8.77A.8.8,0,0,1,7.65,20.09Zm3.9,1.12a11.84,11.84,0,0,0,3.12-7.57.79.79,0,0,0-.72-.85h0a.76.76,0,0,0-.85.69v0a10.2,10.2,0,0,1-2.67,6.6.78.78,0,0,0,1.12,1.1Zm4.09-.15a13.64,13.64,0,0,0,1.19-2.5.8.8,0,0,0-.5-1,.78.78,0,0,0-1,.47,12.54,12.54,0,0,1-1.06,2.22.79.79,0,1,0,1.35.81Zm1.86-5a24.76,24.76,0,0,0,.39-4.87,5.5,5.5,0,0,0-9.6-3.67A.79.79,0,1,0,9.43,8.62l0,0a3.93,3.93,0,0,1,6.86,2.62A23.36,23.36,0,0,1,16,15.78a.78.78,0,0,0,.62.92l.15,0A.78.78,0,0,0,17.5,16.08Zm-9-4.87a3.49,3.49,0,0,1,.06-.65A.79.79,0,0,0,7,10.21s0,.06,0,.08a5.72,5.72,0,0,0-.08.92c0,3.66-1.06,5.51-3.15,5.51a.79.79,0,0,0,0,1.57C6.78,18.29,8.45,15.78,8.45,11.21ZM19.23,21A23.38,23.38,0,0,0,21,11.21a8.67,8.67,0,0,0-.86-3.77.8.8,0,0,0-1.06-.36.78.78,0,0,0-.36,1.05h0a7,7,0,0,1,.71,3.08,22,22,0,0,1-1.67,9.12.79.79,0,0,0,.39,1h0a.79.79,0,0,0,1-.39ZM5.31,13.57V11.21A7.08,7.08,0,0,1,16.64,5.55a.79.79,0,0,0,.94-1.26,8.55,8.55,0,0,0-5.19-1.73,8.67,8.67,0,0,0-8.66,8.65v2.36a.79.79,0,1,0,1.58,0Z"/></svg>