<svg id="Слой_1" data-name="Слой 1" xmlns="http://www.w3.org/2000/svg" viewBox="0 0 24 24"><defs><style>.cls-1{fill:#010101;}</style></defs><path class="cls-1" d="M20.73,15.17a.8.8,0,0,0-.8.8v1.58a2.37,2.37,0,0,1-2.38,2.38H16a.8.8,0,1,0,0,1.59h1.58a4,4,0,0,0,4-4V16A.8.8,0,0,0,20.73,15.17Z"/><path class="cls-1" d="M3.27,8.83a.8.8,0,0,0,.8-.8V6.45A2.37,2.37,0,0,1,6.45,4.07H8A.8.8,0,1,0,8,2.48H6.45a4,4,0,0,0-4,4V8A.8.8,0,0,0,3.27,8.83Z"/><path class="cls-1" d="M8,19.93H6.45a2.37,2.37,0,0,1-2.38-2.38V16a.8.8,0,1,0-1.59,0v1.58a4,4,0,0,0,4,4H8a.8.8,0,1,0,0-1.59Z"/><path class="cls-1" d="M17.55,2.48H16a.8.8,0,1,0,0,1.59h1.58a2.37,2.37,0,0,1,2.38,2.38V8a.8.8,0,1,0,1.59,0V6.45A4,4,0,0,0,17.55,2.48Z"/><path class="cls-1" d="M12,11.21A3.18,3.18,0,1,0,8.83,8,3.17,3.17,0,0,0,12,11.21Zm0-4.76A1.59,1.59,0,1,1,10.41,8,1.59,1.59,0,0,1,12,6.45Z"/><path class="cls-1" d="M16.76,18.35a.79.79,0,0,0,.79-.8,4.76,4.76,0,0,0-4.76-4.76H11.21a4.76,4.76,0,0,0-4.76,4.76.79.79,0,1,0,1.58,0,3.17,3.17,0,0,1,3.18-3.17h1.58A3.17,3.17,0,0,1,16,17.55.79.79,0,0,0,16.76,18.35Z"/></svg>