<svg id="Слой_1" data-name="Слой 1" xmlns="http://www.w3.org/2000/svg" viewBox="0 0 24 24"><defs><style>.cls-1{fill:#010101;}</style></defs><path class="cls-1" d="M12,21.52A9.52,9.52,0,1,1,21.52,12,9.52,9.52,0,0,1,12,21.52ZM12,4.07A7.93,7.93,0,1,0,19.93,12,7.93,7.93,0,0,0,12,4.07ZM16.49,15a.79.79,0,0,0,.07-1.12.78.78,0,0,0-1.12-.06h0A6,6,0,0,1,12,15.17a6,6,0,0,1-3.44-1.38A.79.79,0,1,0,7.51,15,7.46,7.46,0,0,0,12,16.76,7.46,7.46,0,0,0,16.49,15ZM7.24,10.41c0,.8.71.8,1.59.8s1.58,0,1.58-.8a1.59,1.59,0,0,0-3.17,0Zm6.35,0c0,.8.71.8,1.58.8s1.59,0,1.59-.8a1.59,1.59,0,0,0-3.17,0Z"/></svg>