<svg id="Слой_1" data-name="Слой 1" xmlns="http://www.w3.org/2000/svg" viewBox="0 0 24 24"><defs><style>.cls-1{fill:#010101;}</style></defs><path class="cls-1" d="M19.12,5.67H16.67a4,4,0,0,0-3.88-3.16H11.21A4,4,0,0,0,7.33,5.67H4.88a.8.8,0,0,0,0,1.59h.79V17.53a4,4,0,0,0,4,4h4.74a4,4,0,0,0,4-4V7.26h.79a.8.8,0,0,0,0-1.59ZM11.21,4.09h1.58A2.39,2.39,0,0,1,15,5.67H9A2.39,2.39,0,0,1,11.21,4.09Zm5.53,13.44a2.37,2.37,0,0,1-2.37,2.38H9.63a2.37,2.37,0,0,1-2.37-2.38V7.26h9.48Z"/><path class="cls-1" d="M10.42,16.74a.79.79,0,0,0,.79-.79V11.21a.79.79,0,0,0-1.58,0V16A.79.79,0,0,0,10.42,16.74Z"/><path class="cls-1" d="M13.58,16.74a.79.79,0,0,0,.79-.79V11.21a.79.79,0,0,0-1.58,0V16A.79.79,0,0,0,13.58,16.74Z"/></svg>