<svg width="26" height="26" viewBox="0 0 26 26" fill="none" xmlns="http://www.w3.org/2000/svg">
<path d="M11.9167 2.15582C6.53249 2.15582 2.15582 6.53249 2.15582 11.9167C2.15582 17.3008 6.53249 21.6775 11.9167 21.6775C17.3008 21.6775 21.6775 17.3008 21.6775 11.9167C21.6775 6.53249 17.3008 2.15582 11.9167 2.15582ZM11.9167 14.3542H8.66666C8.22249 14.3542 7.85416 13.9858 7.85416 13.5417C7.85416 13.0975 8.22249 12.7292 8.66666 12.7292H11.9167C12.3608 12.7292 12.7292 13.0975 12.7292 13.5417C12.7292 13.9858 12.3608 14.3542 11.9167 14.3542ZM15.1667 11.1042H8.66666C8.22249 11.1042 7.85416 10.7358 7.85416 10.2917C7.85416 9.84749 8.22249 9.47916 8.66666 9.47916H15.1667C15.6108 9.47916 15.9792 9.84749 15.9792 10.2917C15.9792 10.7358 15.6108 11.1042 15.1667 11.1042Z" fill="#1173AE"/>
<path d="M23.8225 20.5292C23.465 19.8683 22.7067 19.5 21.6884 19.5C20.9192 19.5 20.2584 19.8142 19.8684 20.3558C19.4784 20.8975 19.3917 21.6233 19.63 22.3492C20.0959 23.7575 20.9084 24.0717 21.3525 24.1258C21.4175 24.1367 21.4825 24.1367 21.5584 24.1367C22.035 24.1367 22.7717 23.9308 23.4867 22.8583C24.0609 22.0242 24.1692 21.19 23.8225 20.5292Z" fill="#1173AE"/>
</svg>
