<svg width="26" height="26" viewBox="0 0 26 26" fill="none" xmlns="http://www.w3.org/2000/svg">
<path d="M17.5392 2.16669H8.46085C4.51752 2.16669 2.16669 4.51752 2.16669 8.46085V17.5284C2.16669 21.4825 4.51752 23.8334 8.46085 23.8334H17.5284C21.4717 23.8334 23.8225 21.4825 23.8225 17.5392V8.46085C23.8334 4.51752 21.4825 2.16669 17.5392 2.16669ZM17.3334 13.8125H13.8125V17.3334C13.8125 17.7775 13.4442 18.1459 13 18.1459C12.5559 18.1459 12.1875 17.7775 12.1875 17.3334V13.8125H8.66669C8.22252 13.8125 7.85419 13.4442 7.85419 13C7.85419 12.5559 8.22252 12.1875 8.66669 12.1875H12.1875V8.66669C12.1875 8.22252 12.5559 7.85419 13 7.85419C13.4442 7.85419 13.8125 8.22252 13.8125 8.66669V12.1875H17.3334C17.7775 12.1875 18.1459 12.5559 18.1459 13C18.1459 13.4442 17.7775 13.8125 17.3334 13.8125Z" fill="#1173AE"/>
</svg>
