<svg id="Слой_1" data-name="Слой 1" xmlns="http://www.w3.org/2000/svg" viewBox="0 0 24 24"><defs><style>.cls-1{fill:#010101;}</style></defs><path class="cls-1" d="M17.55,2.48H6.45a4,4,0,0,0-4,4v11.1a4,4,0,0,0,4,4h11.1a4,4,0,0,0,4-4V6.45A4,4,0,0,0,17.55,2.48Zm2.38,15.07a2.37,2.37,0,0,1-2.38,2.38H6.45a2.37,2.37,0,0,1-2.38-2.38V6.45A2.37,2.37,0,0,1,6.45,4.07h11.1a2.37,2.37,0,0,1,2.38,2.38Z"/><path class="cls-1" d="M16,12a.79.79,0,0,1-.8.79H12.79v2.38a.79.79,0,1,1-1.58,0V12.79H8.83a.79.79,0,1,1,0-1.58h2.38V8.83a.79.79,0,1,1,1.58,0v2.38h2.38A.79.79,0,0,1,16,12Z"/></svg>