<svg id="Слой_1" data-name="Слой 1" xmlns="http://www.w3.org/2000/svg" viewBox="0 0 24 24"><defs><style>.cls-1{fill:#010101;}</style></defs><path class="cls-1" d="M20.74,10.6,16.81,6.67,15.69,7.8l3.41,3.41H7.93v1.58H19.1L15.69,16.2l1.12,1.13,3.93-3.93a2,2,0,0,0,0-2.81h0Z"/><path class="cls-1" d="M11,19.14a.79.79,0,0,1-.79.79H5.06a.79.79,0,0,1-.79-.79V4.86a.79.79,0,0,1,.79-.79H10.2a.79.79,0,0,1,.79.79V9.09h1.59V4.86A2.39,2.39,0,0,0,10.2,2.48H5.06A2.39,2.39,0,0,0,2.68,4.86V19.14a2.39,2.39,0,0,0,2.38,2.38H10.2a2.39,2.39,0,0,0,2.38-2.38V14.91H11Z"/></svg>