<svg id="Слой_1" data-name="Слой 1" xmlns="http://www.w3.org/2000/svg" viewBox="0 0 24 24"><defs><style>.cls-1{fill:#010101;}</style></defs><path class="cls-1" d="M16.76,2.48H8.83A4,4,0,0,0,5.2,4.86H4.07a.8.8,0,1,0,0,1.59h.79V8H4.07a.8.8,0,0,0-.8.8.79.79,0,0,0,.8.79h.79v1.59H4.07a.79.79,0,1,0,0,1.58h.79v1.59H4.07a.79.79,0,0,0-.8.79.8.8,0,0,0,.8.8h.79v1.58H4.07a.8.8,0,1,0,0,1.59H5.2a4,4,0,0,0,3.63,2.38h7.93a4,4,0,0,0,4-4V6.45A4,4,0,0,0,16.76,2.48Zm2.38,15.07a2.38,2.38,0,0,1-2.38,2.38H8.83a2.37,2.37,0,0,1-2.38-2.38V6.45A2.37,2.37,0,0,1,8.83,4.07h7.93a2.38,2.38,0,0,1,2.38,2.38ZM12.79,12a2.38,2.38,0,1,0-2.38-2.38A2.38,2.38,0,0,0,12.79,12Zm4,4.76a.8.8,0,0,1-1.59,0,2.38,2.38,0,1,0-4.76,0,.79.79,0,0,1-1.58,0A4,4,0,0,1,16.76,16.76Z"/></svg>